<svg width="65" height="65" viewBox="0 0 65 65" fill="none" xmlns="http://www.w3.org/2000/svg">
<path d="M24.5895 19.4035C24.7715 19.0393 25.0587 18.7382 25.4139 18.5393C25.769 18.3403 26.1758 18.2526 26.5814 18.2877C26.987 18.3227 27.3727 18.4788 27.6885 18.7357C28.0043 18.9926 28.2356 19.3385 28.3524 19.7285L32.9735 35.1355L36.7821 27.5285C36.9508 27.1912 37.2102 26.9075 37.531 26.7092C37.8519 26.5109 38.2216 26.4059 38.5988 26.4059C38.976 26.4059 39.3457 26.5109 39.6666 26.7092C39.9875 26.9075 40.2468 27.1912 40.4155 27.5285L43.9118 34.5312H56.1958C58.0247 30.7607 58.9526 26.6167 58.9062 22.4263C58.8263 14.5412 52.5002 8.125 44.8043 8.125C38.6991 8.125 34.648 11.8752 32.5 14.5996C30.357 11.8714 26.3009 8.125 20.1957 8.125C12.4998 8.125 6.17372 14.5412 6.09374 22.4263C6.06092 25.1491 6.4432 27.8611 7.22744 30.4688H19.0569L24.5895 19.4035Z" fill="#D99E63"/>
<path d="M40.8396 37.4715L38.5938 32.9799L34.3167 41.534C34.1479 41.8713 33.8886 42.1549 33.5677 42.3531C33.2469 42.5513 32.8771 42.6563 32.5 42.6563C32.4433 42.6563 32.3849 42.6537 32.3248 42.6486C31.9182 42.6149 31.5313 42.4595 31.2142 42.2027C30.8972 41.946 30.6649 41.5997 30.5475 41.209L25.9264 25.802L22.1178 33.409C21.9499 33.7445 21.6923 34.027 21.3737 34.2251C21.055 34.4232 20.6877 34.5292 20.3125 34.5313H8.8042C9.98909 37.0102 11.5663 39.4503 13.5357 41.8514C15.9187 44.7561 20.2389 49.4 30.2161 56.173C30.889 56.6341 31.6856 56.8809 32.5013 56.8809C33.317 56.8809 34.1136 56.6341 34.7864 56.173C44.7637 49.4 49.0839 44.7561 51.4668 41.8514C52.3251 40.8067 53.1301 39.7195 53.8789 38.5938H42.6562C42.2791 38.5938 41.9094 38.4888 41.5885 38.2906C41.2677 38.0924 41.0083 37.8088 40.8396 37.4715ZM58.9062 34.5313H56.1958C55.5205 35.9385 54.7462 37.296 53.8789 38.5938H58.9062C59.445 38.5938 59.9616 38.3797 60.3426 37.9988C60.7235 37.6179 60.9375 37.1012 60.9375 36.5625C60.9375 36.0238 60.7235 35.5071 60.3426 35.1262C59.9616 34.7453 59.445 34.5313 58.9062 34.5313ZM6.09375 30.4688C5.55503 30.4688 5.03837 30.6828 4.65744 31.0637C4.27651 31.4446 4.0625 31.9613 4.0625 32.5C4.0625 33.0387 4.27651 33.5554 4.65744 33.9363C5.03837 34.3172 5.55503 34.5313 6.09375 34.5313H8.8042C8.17603 33.2192 7.64892 31.8611 7.22744 30.4688H6.09375Z" fill="#D99E63"/>
</svg>
