<svg width="130" height="122" viewBox="0 0 130 122" fill="none" xmlns="http://www.w3.org/2000/svg">
<ellipse cx="65" cy="61" rx="65" ry="61" fill="#F5F4EE"/>
<path d="M56.5895 48.4035C56.7715 48.0393 57.0587 47.7382 57.4139 47.5393C57.769 47.3403 58.1758 47.2526 58.5814 47.2877C58.987 47.3227 59.3727 47.4788 59.6885 47.7357C60.0043 47.9926 60.2356 48.3385 60.3524 48.7285L64.9735 64.1355L68.7821 56.5285C68.9508 56.1912 69.2102 55.9075 69.531 55.7092C69.8519 55.5109 70.2216 55.4059 70.5988 55.4059C70.976 55.4059 71.3457 55.5109 71.6666 55.7092C71.9875 55.9075 72.2468 56.1912 72.4155 56.5285L75.9118 63.5312H88.1958C90.0247 59.7607 90.9526 55.6167 90.9062 51.4263C90.8263 43.5412 84.5002 37.125 76.8043 37.125C70.6991 37.125 66.648 40.8752 64.5 43.5996C62.357 40.8714 58.3009 37.125 52.1957 37.125C44.4998 37.125 38.1737 43.5412 38.0937 51.4263C38.0609 54.1491 38.4432 56.8611 39.2274 59.4688H51.0569L56.5895 48.4035Z" fill="#D99E63"/>
<path d="M72.8396 66.4715L70.5938 61.9799L66.3167 70.534C66.1479 70.8713 65.8886 71.1549 65.5677 71.3532C65.2469 71.5514 64.8771 71.6563 64.5 71.6563C64.4433 71.6563 64.3849 71.6538 64.3248 71.6487C63.9182 71.615 63.5313 71.4596 63.2142 71.2028C62.8972 70.946 62.6649 70.5997 62.5475 70.209L57.9264 54.802L54.1178 62.409C53.9499 62.7446 53.6923 63.0271 53.3737 63.2252C53.055 63.4233 52.6877 63.5292 52.3125 63.5313H40.8042C41.9891 66.0103 43.5663 68.4503 45.5357 70.8514C47.9187 73.7561 52.2389 78.4 62.2161 85.173C62.889 85.6341 63.6856 85.8809 64.5013 85.8809C65.317 85.8809 66.1136 85.6341 66.7864 85.173C76.7637 78.4 81.0839 73.7561 83.4668 70.8514C84.3251 69.8068 85.1301 68.7195 85.8789 67.5938H74.6562C74.2791 67.5938 73.9094 67.4889 73.5885 67.2907C73.2677 67.0924 73.0083 66.8088 72.8396 66.4715ZM90.9062 63.5313H88.1958C87.5205 64.9385 86.7462 66.2961 85.8789 67.5938H90.9062C91.445 67.5938 91.9616 67.3798 92.3426 66.9989C92.7235 66.6179 92.9375 66.1013 92.9375 65.5625C92.9375 65.0238 92.7235 64.5072 92.3426 64.1262C91.9616 63.7453 91.445 63.5313 90.9062 63.5313ZM38.0938 59.4688C37.555 59.4688 37.0384 59.6828 36.6574 60.0637C36.2765 60.4447 36.0625 60.9613 36.0625 61.5C36.0625 62.0388 36.2765 62.5554 36.6574 62.9364C37.0384 63.3173 37.555 63.5313 38.0938 63.5313H40.8042C40.176 62.2192 39.6489 60.8611 39.2274 59.4688H38.0938Z" fill="#D99E63"/>
</svg>
