<svg width="461" height="542" viewBox="0 0 461 542" fill="none" xmlns="http://www.w3.org/2000/svg">
<g clip-path="url(#clip0_10_7924)">
<path d="M226.389 541.849C350.901 541.849 451.838 534.15 451.838 524.654C451.838 515.157 350.901 507.458 226.389 507.458C101.877 507.458 0.94043 515.157 0.94043 524.654C0.94043 534.15 101.877 541.849 226.389 541.849Z" fill="#E6E6E6"/>
<path d="M288.562 30.2649H216.115V120.608H288.562V30.2649Z" fill="#2F2E41"/>
<path d="M156.291 451.681L146.412 488.038L162.878 500.157L167.268 496.852L174.952 459.393L156.291 451.681Z" fill="#FFB8B8"/>
<path d="M280.329 448.376L277.036 492.445H297.892V451.681L280.329 448.376Z" fill="#FFB8B8"/>
<path d="M214.469 169.635V196.077L255.084 202.687L290.209 188.365L283.623 171.838L214.469 169.635Z" fill="#FFB8B8"/>
<path d="M247.399 191.67L212.274 185.06L203.492 256.673L181.539 345.914C181.539 345.914 148.608 421.934 152.999 439.562L155.194 445.07L152.999 454.986L174.953 463.8L183.734 449.477C183.734 449.477 190.32 459.393 201.297 438.46C212.274 417.527 258.376 287.521 258.376 287.521L266.06 309.556C264.072 316.354 263.696 323.521 264.962 330.489C267.158 341.507 269.353 375.661 269.353 375.661C269.353 375.661 257.279 435.155 273.744 439.562L277.037 452.783L300.088 454.986L304.479 441.765C304.479 441.765 326.432 434.053 320.944 395.492C315.455 356.931 313.26 230.231 313.26 230.231L291.635 176.715L247.399 191.67Z" fill="#2F2E41"/>
<path d="M152.999 485.835C152.999 485.835 147.511 481.428 145.315 482.53C143.12 483.631 120.069 513.378 120.069 513.378C120.069 513.378 95.9196 532.108 113.482 534.311C131.045 536.515 179.343 512.277 179.343 506.768C179.343 501.259 169.195 487.463 169.195 487.463C169.195 487.463 161.78 493.547 152.999 485.835Z" fill="#2F2E41"/>
<path d="M274.841 482.53C274.841 482.53 294.599 481.298 297.892 484.668C301.185 488.038 300.088 504.564 300.088 504.564C300.088 504.564 302.283 534.311 284.72 534.311C267.157 534.311 271.548 514.48 271.548 514.48L274.841 482.53Z" fill="#2F2E41"/>
<path d="M255.083 72.682C270.239 72.682 282.525 60.3504 282.525 45.1385C282.525 29.9266 270.239 17.595 255.083 17.595C239.927 17.595 227.641 29.9266 227.641 45.1385C227.641 60.3504 239.927 72.682 255.083 72.682Z" fill="#FFB8B8"/>
<path d="M236.971 62.2153C236.971 62.2153 252.339 80.9449 221.604 95.2676C190.869 109.59 243.557 169.084 243.557 169.084C243.557 169.084 305.027 145.948 299.539 100.776C299.539 100.776 262.218 94.1658 270.999 63.3171L236.971 62.2153Z" fill="#FFB8B8"/>
<path d="M220.506 94.166C220.506 94.166 195.26 90.8607 194.162 111.794C193.064 132.727 194.162 183.407 194.162 183.407C194.162 183.407 183.185 227.477 188.673 266.038C188.673 266.038 182.087 311.209 199.65 309.005C217.213 306.802 204.041 262.732 204.041 262.732L211.725 191.119L208.432 138.236L222.701 106.285L220.506 94.166Z" fill="#FFB8B8"/>
<path d="M293.165 99.0331C293.165 99.0331 317.102 98.5728 318.2 116.201C319.297 133.829 310.516 187.814 310.516 187.814L297.344 194.424L285.269 156.965L293.165 99.0331Z" fill="#FFB8B8"/>
<path d="M300.088 189.467L297.893 194.975L304.479 211.501C304.479 211.501 278.134 232.434 280.33 236.841C282.525 241.248 294.599 231.333 294.599 231.333L312.162 240.147C312.162 240.147 326.432 224.722 319.846 210.4C316.198 202.7 313.145 194.731 310.716 186.565C310.716 186.565 301.186 186.161 300.088 189.467Z" fill="#FFB8B8"/>
<path d="M215.566 90.3098L212.273 126.667C212.273 126.667 196.906 142.092 214.469 163.025L212.273 179.551C212.273 179.551 252.888 177.347 260.571 179.551C268.255 181.754 291.985 177.777 291.985 177.777L292.404 165.228C292.404 165.228 303.381 149.804 300.088 126.667C296.795 103.531 300.088 95.8185 300.088 95.8185L292.404 94.7168C292.404 94.7168 287.464 128.32 253.436 131.625C253.436 131.625 211.176 135.481 223.25 90.3098L215.566 90.3098Z" fill="#E6E6E6"/>
<path d="M257.827 0.517937C257.827 0.517937 229.288 -1.25788 222.702 16.5551C216.115 34.3681 204.59 43.7198 204.59 43.7198C204.59 43.7198 186.434 56.3868 195.512 78.9993C195.512 78.9993 167.269 98.0492 185.929 114.971C185.929 114.971 184.832 131.894 195.808 143.472C195.808 143.472 204.59 147.925 201.297 150.597C198.004 153.269 223.25 151.488 221.055 127.441C218.86 103.393 233.678 86.4538 233.678 86.4538C233.678 86.4538 219.409 55.2754 225.995 44.5876C229.993 38.0986 231.711 33.2596 235.03 30.459C236.879 28.9361 238.594 27.2567 240.154 25.4395C241.627 23.5676 243.631 22.1851 245.903 21.4737C248.176 20.7623 250.611 20.7553 252.888 21.4536C262.767 24.1256 264.962 32.1414 264.962 32.1414C264.962 32.1414 272.097 51.2903 284.172 60.1967C296.246 69.1032 274.841 84.6895 274.841 84.6895C274.841 84.6895 278.562 103.04 288.227 113.904C297.893 124.769 285.442 134.239 284.72 135.456C283.074 138.236 276.498 155.786 303.661 155.863C303.661 155.863 309.967 142.581 318.748 134.566C327.53 126.55 320.944 103.393 320.944 103.393C320.944 103.393 334.116 95.3772 319.846 75.783C319.846 75.783 324.237 57.9701 312.162 46.3917C312.162 46.3917 295.148 -5.71657 257.827 0.517937Z" fill="#2F2E41"/>
<path d="M225.446 48.9946C226.961 48.9946 228.19 47.0215 228.19 44.5876C228.19 42.1537 226.961 40.1807 225.446 40.1807C223.93 40.1807 222.701 42.1537 222.701 44.5876C222.701 47.0215 223.93 48.9946 225.446 48.9946Z" fill="#FFB8B8"/>
<path d="M94.3739 499.035H27.011V506.845H94.3739V499.035Z" fill="#2F2E41"/>
<path d="M94.3738 526.371C97.6089 526.371 100.231 515.881 100.231 502.94C100.231 490 97.6089 479.51 94.3738 479.51C91.1387 479.51 88.5161 490 88.5161 502.94C88.5161 515.881 91.1387 526.371 94.3738 526.371Z" fill="#2F2E41"/>
<path d="M27.011 526.371C30.2461 526.371 32.8686 515.881 32.8686 502.94C32.8686 490 30.2461 479.51 27.011 479.51C23.7759 479.51 21.1533 490 21.1533 502.94C21.1533 515.881 23.7759 526.371 27.011 526.371Z" fill="#2F2E41"/>
<path d="M78.3829 499.035H11.02V506.845H78.3829V499.035Z" fill="#2F2E41"/>
<path d="M78.3828 526.371C81.6179 526.371 84.2405 515.881 84.2405 502.94C84.2405 490 81.6179 479.51 78.3828 479.51C75.1477 479.51 72.5251 490 72.5251 502.94C72.5251 515.881 75.1477 526.371 78.3828 526.371Z" fill="#2F2E41"/>
<path d="M11.02 526.371C14.2551 526.371 16.8777 515.881 16.8777 502.94C16.8777 490 14.2551 479.51 11.02 479.51C7.78492 479.51 5.16235 490 5.16235 502.94C5.16235 515.881 7.78492 526.371 11.02 526.371Z" fill="#2F2E41"/>
</g>
<defs>
<clipPath id="clip0_10_7924">
<rect width="460.06" height="542" fill="white" transform="translate(0.94043)"/>
</clipPath>
</defs>
</svg>
