<svg width="405" height="156" viewBox="0 0 405 156" fill="none" xmlns="http://www.w3.org/2000/svg">
<g clip-path="url(#clip0_18_8473)">
<path d="M18.1757 62.9907L30.3454 53.2444C20.8913 52.2 17.0068 57.3629 15.417 61.4493C8.03115 58.3784 -0.00927734 62.403 -0.00927734 62.403L24.3399 71.2544C23.1116 67.969 20.9733 65.1024 18.1757 62.9907Z" fill="#3F3D56"/>
<path d="M384.715 9.88281L396.885 0.136493C387.431 -0.907933 383.546 4.25495 381.957 8.34142C374.571 5.27045 366.53 9.29511 366.53 9.29511L390.879 18.1465C389.651 14.8611 387.513 11.9945 384.715 9.88281Z" fill="#3F3D56"/>
<path d="M314.639 139.221L326.808 129.475C317.354 128.43 313.47 133.593 311.88 137.68C304.494 134.609 296.454 138.633 296.454 138.633L320.803 147.485C319.574 144.2 317.436 141.333 314.639 139.221Z" fill="#3F3D56"/>
</g>
<defs>
<clipPath id="clip0_18_8473">
<rect width="404.975" height="156" fill="white"/>
</clipPath>
</defs>
</svg>
