<svg width="170" height="166" viewBox="0 0 170 166" fill="none" xmlns="http://www.w3.org/2000/svg">
<g clip-path="url(#clip0_18_8787)">
<path d="M139.016 21.1573C126.949 8.29395 110.337 0.697267 92.7515 0V67.6085L139.016 21.1573Z" fill="#3F3D56"/>
<path d="M139.016 29.5754L92.7515 76.0266H157.407C157.43 58.749 150.847 42.1218 139.016 29.5754Z" fill="#E4E4E4"/>
<path d="M157.477 80.8848C157.479 85.0987 157.091 89.3036 156.317 93.4452C156.257 93.7732 156.193 94.0978 156.127 94.4225C154.667 101.647 152.031 108.581 148.327 114.945C148.13 115.286 147.927 115.628 147.723 115.962V115.966C144.072 121.998 139.506 127.421 134.19 132.04C133.927 132.271 133.663 132.499 133.397 132.723C121.972 142.373 107.669 147.923 92.75 148.493V80.8848H157.477Z" fill="#F0F0F0"/>
<path d="M86.2105 148.552C87.1055 148.552 87.9951 148.529 88.8818 148.494V80.8833L39.9097 130.053C52.4095 141.952 68.9852 148.575 86.2105 148.552Z" fill="#CACACA"/>
<path d="M86.3023 8.35791C49.0799 8.35791 18.9053 38.6543 18.9053 76.0267H89.0433V8.41823C88.1337 8.38168 87.2209 8.35791 86.3023 8.35791Z" fill="#D99E63"/>
<path d="M70.2233 80.8848L56.0534 95.1119L55.59 95.5771L55.58 95.5871L43.2233 107.99L42.7534 108.462L29.4034 121.866L28.9333 122.338V122.341L21.25 130.052C14.5786 123.736 9.26523 116.115 5.63708 107.659C2.00893 99.2035 0.142743 90.0917 0.153365 80.8848H70.2233Z" fill="#D99E63"/>
<path d="M150.493 166C153.439 166 155.827 163.603 155.827 160.645C155.827 157.688 153.439 155.29 150.493 155.29C147.548 155.29 145.16 157.688 145.16 160.645C145.16 163.603 147.548 166 150.493 166Z" fill="#F0F0F0"/>
<path d="M20.8265 15.0605C23.772 15.0605 26.1598 12.6631 26.1598 9.70567C26.1598 6.74827 23.772 4.35083 20.8265 4.35083C17.881 4.35083 15.4932 6.74827 15.4932 9.70567C15.4932 12.6631 17.881 15.0605 20.8265 15.0605Z" fill="#F0F0F0"/>
<path d="M28.9334 122.341C17.875 111.345 11.4133 96.5258 10.8672 80.9089L12.1997 80.8608C12.7341 96.1381 19.0554 110.635 29.8734 121.391L28.9334 122.341Z" fill="#3F3D56"/>
<path d="M43.2367 108.004L42.27 108.921C34.9033 101.111 29.7039 91.4984 27.1899 81.0421L27.8368 80.8848H28.5233C30.9957 91.0483 36.062 100.39 43.2233 107.99L43.2367 108.004Z" fill="#3F3D56"/>
<path d="M56.0898 96.8321L55.5898 97.2504L55.5798 97.2605L55.0666 97.6889C51.3263 93.1972 48.2441 88.1924 45.9131 82.8259L46.5231 82.5581H47.2532C49.5109 87.6896 52.473 92.4784 56.0532 96.7852C56.0644 96.8017 56.0766 96.8173 56.0898 96.8321Z" fill="#3F3D56"/>
</g>
<defs>
<clipPath id="clip0_18_8787">
<rect width="170" height="166" fill="white"/>
</clipPath>
</defs>
</svg>
