<svg width="71" height="56" viewBox="0 0 71 56" fill="none" xmlns="http://www.w3.org/2000/svg">
<path d="M52.9634 55.3273C51.9806 54.503 51.3837 53.2009 51.5402 51.9332C51.6968 50.6656 52.6664 49.5002 53.9241 49.231C55.1818 48.9619 56.6155 49.707 56.9975 50.9265C57.2078 48.5753 57.45 46.1256 58.7094 44.1233C59.8497 42.3103 61.8247 41.013 63.9652 40.7809C66.1058 40.5489 68.3594 41.4254 69.6944 43.1024C71.0293 44.7794 71.3562 47.2174 70.4212 49.1428C69.7325 50.5611 68.4635 51.6166 67.134 52.4753C62.8378 55.2268 57.6851 56.3458 52.624 55.6262" fill="#F2F2F2"/>
<path d="M67.5777 41.4741C65.8115 42.902 64.1913 44.4991 62.7403 46.2422C60.4696 48.9607 58.6321 52.0087 57.2918 55.2799C57.1937 55.5186 57.5841 55.6225 57.6811 55.3865C59.874 50.07 63.3748 45.3842 67.8632 41.7575C68.0648 41.5946 67.7776 41.3125 67.5777 41.4741Z" fill="white"/>
<path d="M17.3586 55.8914H11.7851C11.5967 55.8911 11.4162 55.8168 11.283 55.6846C11.1498 55.5524 11.0749 55.3732 11.0747 55.1862V43.6875C11.0749 43.5006 11.1498 43.3214 11.283 43.1892C11.4162 43.057 11.5967 42.9826 11.7851 42.9824H17.3586C17.5469 42.9826 17.7275 43.057 17.8607 43.1892C17.9938 43.3214 18.0688 43.5006 18.069 43.6875V55.1862C18.0688 55.3732 17.9938 55.5524 17.8607 55.6846C17.7275 55.8168 17.5469 55.8911 17.3586 55.8914Z" fill="#D99E63"/>
<path d="M30.5822 56.0001H25.0086C24.7913 55.9999 24.583 55.9141 24.4293 55.7615C24.2756 55.609 24.1892 55.4022 24.189 55.1865V32.84C24.1892 32.6243 24.2756 32.4175 24.4293 32.2649C24.583 32.1124 24.7913 32.0266 25.0086 32.0264H30.5822C30.7995 32.0266 31.0078 32.1124 31.1615 32.2649C31.3151 32.4175 31.4016 32.6243 31.4018 32.84V55.1865C31.4016 55.4022 31.3151 55.609 31.1615 55.7615C31.0078 55.9141 30.7995 55.9999 30.5822 56.0001ZM25.0086 32.2433C24.8492 32.2435 24.6965 32.3064 24.5838 32.4183C24.4711 32.5301 24.4077 32.6818 24.4075 32.84V55.1865C24.4077 55.3447 24.4711 55.4963 24.5838 55.6082C24.6965 55.72 24.8492 55.783 25.0086 55.7831H30.5822C30.7415 55.783 30.8943 55.72 31.007 55.6082C31.1197 55.4963 31.183 55.3447 31.1832 55.1865V32.84C31.183 32.6818 31.1197 32.5301 31.007 32.4183C30.8943 32.3064 30.7415 32.2435 30.5822 32.2433H25.0086Z" fill="#3F3D56"/>
<path d="M43.8058 55.9998H38.2322C38.0149 55.9996 37.8066 55.9138 37.6529 55.7613C37.4993 55.6088 37.4128 55.402 37.4126 55.1862V18.629C37.4128 18.4133 37.4993 18.2065 37.6529 18.054C37.8066 17.9015 38.0149 17.8157 38.2322 17.8154H43.8058C44.0231 17.8157 44.2314 17.9015 44.3851 18.054C44.5388 18.2065 44.6252 18.4133 44.6254 18.629V55.1862C44.6252 55.402 44.5388 55.6088 44.3851 55.7613C44.2314 55.9138 44.0231 55.9996 43.8058 55.9998ZM38.2322 18.0324C38.0729 18.0326 37.9201 18.0955 37.8074 18.2073C37.6947 18.3192 37.6313 18.4708 37.6312 18.629V55.1862C37.6313 55.3444 37.6947 55.4961 37.8074 55.6079C37.9201 55.7198 38.0729 55.7827 38.2322 55.7829H43.8058C43.9651 55.7827 44.1179 55.7198 44.2306 55.6079C44.3433 55.4961 44.4067 55.3444 44.4069 55.1862V18.629C44.4067 18.4708 44.3433 18.3192 44.2306 18.2073C44.1179 18.0955 43.9651 18.0326 43.8058 18.0324H38.2322Z" fill="#3F3D56"/>
<path d="M57.1526 55.9458H51.579C51.3907 55.9456 51.2101 55.8712 51.077 55.739C50.9438 55.6068 50.8689 55.4276 50.8687 55.2407V3.71341C50.8689 3.52647 50.9438 3.34725 51.077 3.21506C51.2101 3.08287 51.3907 3.00852 51.579 3.0083H57.1526C57.3409 3.00852 57.5214 3.08287 57.6546 3.21506C57.7878 3.34725 57.8627 3.52647 57.8629 3.71341V55.2407C57.8627 55.4276 57.7878 55.6068 57.6546 55.739C57.5214 55.8712 57.3409 55.9456 57.1526 55.9458Z" fill="#D99E63"/>
</svg>
