<svg width="911" height="728" viewBox="0 0 911 728" fill="none" xmlns="http://www.w3.org/2000/svg">
<g clip-path="url(#clip0_16_8371)">
<path d="M752.025 650.512C752.096 650.395 752.173 650.281 752.255 650.172C752.457 649.695 752.712 649.242 753.015 648.822L778.175 613.622L798.905 584.632H834.265L831.765 588.122L827.315 594.352L813.525 613.632L783.975 654.962L811.365 709.982C812.485 712.222 810.575 715.442 807.125 717.162L793.915 723.742C792.603 724.411 791.157 724.774 789.685 724.802C787.825 724.802 786.275 724.112 785.625 722.802L751.575 654.402C751.307 653.77 751.207 653.079 751.286 652.397C751.365 651.715 751.62 651.066 752.025 650.512Z" fill="#D99E63"/>
<path d="M799.607 648.403L763.986 635.168C762.372 634.566 761.062 633.348 760.344 631.781C759.626 630.215 759.559 628.427 760.157 626.811L770.606 598.689C771.208 597.075 772.426 595.765 773.993 595.047C775.559 594.33 777.347 594.262 778.963 594.86L814.584 608.095C816.198 608.697 817.508 609.915 818.226 611.482C818.944 613.049 819.011 614.836 818.413 616.453L807.964 644.574C807.667 645.374 807.215 646.108 806.634 646.734C806.053 647.359 805.355 647.864 804.579 648.22C803.803 648.575 802.964 648.775 802.111 648.806C801.258 648.838 800.407 648.701 799.607 648.403Z" fill="#2F2E41"/>
<path d="M769.318 632.771C769.078 632.771 768.839 632.727 768.614 632.642C768.118 632.454 767.717 632.077 767.499 631.594C767.281 631.11 767.263 630.56 767.45 630.064L780.528 595.453C780.716 594.957 781.093 594.555 781.576 594.337C782.06 594.119 782.61 594.101 783.106 594.289C783.603 594.476 784.004 594.853 784.222 595.337C784.441 595.82 784.458 596.371 784.27 596.867L771.192 631.478C771.047 631.858 770.791 632.185 770.456 632.416C770.122 632.647 769.725 632.771 769.318 632.771Z" fill="white"/>
<path d="M826.795 719.652V594.642C826.792 594.525 826.799 594.409 826.816 594.294C826.877 592.844 827.36 591.443 828.206 590.264C829.053 589.084 830.225 588.178 831.58 587.657C832.444 587.314 833.365 587.139 834.295 587.142H849.055C851.043 587.144 852.95 587.935 854.356 589.341C855.762 590.747 856.553 592.653 856.555 594.642V719.652C856.553 721.64 855.762 723.547 854.356 724.953C852.95 726.359 851.043 727.15 849.055 727.152H834.295C832.306 727.15 830.4 726.359 828.994 724.953C827.588 723.547 826.797 721.64 826.795 719.652Z" fill="#D99E63"/>
<path d="M818.785 641.632V611.632C818.787 609.909 819.473 608.256 820.691 607.038C821.91 605.819 823.562 605.134 825.285 605.132H863.285C865.008 605.134 866.661 605.819 867.879 607.038C869.098 608.256 869.783 609.909 869.785 611.632V641.632C869.783 643.355 869.098 645.007 867.879 646.226C866.661 647.444 865.008 648.13 863.285 648.132H825.285C823.562 648.13 821.91 647.444 820.691 646.226C819.473 645.007 818.787 643.355 818.785 641.632Z" fill="#2F2E41"/>
<path d="M847.86 644.966C847.33 644.965 846.821 644.754 846.446 644.379C846.071 644.004 845.86 643.496 845.86 642.966V605.966C845.86 605.435 846.071 604.926 846.446 604.551C846.821 604.176 847.329 603.966 847.86 603.966C848.39 603.966 848.899 604.176 849.274 604.551C849.649 604.926 849.86 605.435 849.86 605.966V642.966C849.859 643.496 849.648 644.004 849.273 644.379C848.898 644.754 848.39 644.965 847.86 644.966Z" fill="white"/>
<path d="M779.526 499.556L670.187 443.186C668.423 442.271 667.093 440.694 666.488 438.801C665.883 436.907 666.053 434.851 666.961 433.083L673.721 419.962C674.637 418.198 676.214 416.868 678.107 416.264C680 415.66 682.056 415.83 683.824 416.737L793.165 473.108C793.715 473.389 794.225 473.741 794.684 474.155C795.939 475.256 796.79 476.747 797.099 478.388C797.409 480.03 797.159 481.728 796.39 483.211L789.629 496.331C789.178 497.208 788.559 497.987 787.806 498.623C787.053 499.26 786.182 499.741 785.243 500.039C784.499 500.271 783.724 500.39 782.945 500.391C781.755 500.39 780.582 500.104 779.526 499.556Z" fill="#D99E63"/>
<path d="M781.651 502.797L728.493 481.81C726.718 480.917 725.369 479.357 724.742 477.472C724.114 475.587 724.26 473.531 725.146 471.752L737.268 446.768C738.164 444.995 739.723 443.647 741.608 443.017C742.556 442.704 743.557 442.584 744.552 442.662C745.547 442.741 746.517 443.017 747.404 443.474L795.408 472.574C795.594 472.668 795.767 472.788 795.919 472.93C797.143 474.031 797.752 476.675 798.241 478.796L798.319 479.126C798.452 479.696 798.568 480.187 798.685 480.531L798.724 480.663C798.767 480.803 798.811 480.948 798.84 481.081C799.269 482.813 799.064 484.642 798.262 486.236L791.642 499.426C791.01 500.668 790.048 501.713 788.861 502.444C787.674 503.176 786.309 503.566 784.915 503.572C783.781 503.574 782.663 503.309 781.651 502.797Z" fill="#2F2E41"/>
<path d="M820.863 434.329C850.421 434.329 874.382 410.368 874.382 380.81C874.382 351.252 850.421 327.291 820.863 327.291C791.305 327.291 767.344 351.252 767.344 380.81C767.344 410.368 791.305 434.329 820.863 434.329Z" fill="#D99E63"/>
<path d="M823.987 409.646L824.043 407.646C820.322 407.542 817.042 407.309 814.577 405.508C813.878 404.968 813.304 404.285 812.893 403.503C812.482 402.722 812.244 401.861 812.196 400.979C812.152 400.441 812.234 399.9 812.434 399.398C812.634 398.896 812.947 398.446 813.349 398.085C814.985 396.703 817.618 397.15 819.537 398.03L821.191 398.789L818.018 375.599L816.037 375.87L818.736 395.597C816.128 394.83 813.712 395.16 812.058 396.558C811.422 397.112 810.924 397.806 810.601 398.586C810.278 399.365 810.14 400.208 810.197 401.05C810.256 402.234 810.572 403.392 811.125 404.441C811.678 405.49 812.453 406.405 813.397 407.123C816.564 409.438 820.68 409.553 823.987 409.646Z" fill="#2F2E41"/>
<path d="M806.237 377.571H795.466V379.571H806.237V377.571Z" fill="#2F2E41"/>
<path d="M840.237 377.571H829.466V379.571H840.237V377.571Z" fill="#2F2E41"/>
<path d="M772.076 614.106C768.542 613.902 765.785 608.091 765.785 600.804V507.132C765.784 502.57 766.357 498.026 767.491 493.607L767.491 493.606C767.904 492.017 768.393 490.438 768.944 488.914C772.301 479.533 778.195 471.266 785.969 465.034C786.847 464.318 787.766 463.624 788.697 462.973C793.225 459.778 798.221 457.303 803.507 455.638C803.361 454.979 803.287 454.306 803.285 453.632C803.288 451.113 804.29 448.698 806.071 446.917C807.852 445.136 810.266 444.134 812.785 444.132H826.785C829.304 444.134 831.719 445.136 833.5 446.917C835.28 448.698 836.282 451.113 836.285 453.632C836.284 454.305 836.209 454.976 836.064 455.634C847.006 459.099 856.56 465.958 863.343 475.217C870.125 484.476 873.782 495.654 873.785 507.132V600.804C873.785 608.278 870.93 614.132 867.285 614.132H772.285C772.215 614.133 772.144 614.125 772.076 614.106Z" fill="#2F2E41"/>
<path d="M833.919 622.657C833.297 621.566 832.959 620.337 832.936 619.081L830.832 496.088C830.814 495.103 830.991 494.124 831.352 493.207C831.713 492.291 832.251 491.454 832.936 490.746L832.938 490.744C833.622 490.036 834.438 489.469 835.341 489.076C836.245 488.683 837.216 488.472 838.201 488.455L852.961 488.207C854.82 488.174 856.626 488.833 858.026 490.057C859.427 491.28 860.323 492.981 860.539 494.828C860.571 495.074 860.587 495.322 860.588 495.57L862.699 618.572C862.728 620.56 861.967 622.478 860.585 623.907C859.202 625.336 857.31 626.159 855.322 626.197L840.567 626.451C839.221 626.471 837.894 626.129 836.725 625.462C835.556 624.795 834.587 623.826 833.919 622.657Z" fill="#D99E63"/>
<path d="M827.716 538.195C827.157 537.212 826.827 536.116 826.751 534.987L827.381 478.004C827.228 476.022 827.868 474.059 829.16 472.547C830.452 471.036 832.291 470.098 834.273 469.941L848.986 468.788C850.777 468.651 852.558 469.158 854.009 470.216C854.16 470.33 854.311 470.47 854.458 470.569C854.826 470.875 855.209 471.162 855.606 471.429L855.925 471.656C858.04 473.153 860.438 474.85 860.554 476.504L869.405 532.099C869.538 533.686 869.153 535.274 868.309 536.625C868.111 536.957 867.884 537.271 867.632 537.564C867.411 537.824 867.17 538.067 866.911 538.289C865.69 539.387 864.14 540.049 862.503 540.173L834.812 541.959C833.394 542.068 831.974 541.773 830.718 541.106C829.462 540.44 828.421 539.43 827.716 538.195Z" fill="#2F2E41"/>
<path d="M775.86 600.966C775.33 600.965 774.821 600.754 774.446 600.379C774.071 600.004 773.86 599.496 773.86 598.966V501.966C773.86 501.435 774.071 500.926 774.446 500.551C774.821 500.176 775.329 499.966 775.86 499.966C776.39 499.966 776.899 500.176 777.274 500.551C777.649 500.926 777.86 501.435 777.86 501.966V598.966C777.859 599.496 777.648 600.004 777.273 600.379C776.898 600.754 776.39 600.965 775.86 600.966Z" fill="white"/>
<path d="M869.401 368.096L776.427 334.083C775.934 333.903 775.481 333.627 775.095 333.272C774.708 332.916 774.395 332.488 774.174 332.011C773.953 331.535 773.827 331.02 773.805 330.495C773.783 329.97 773.865 329.446 774.045 328.953L774.36 327.466C781.621 307.617 805.688 295.126 825.536 302.387L854.146 312.853C873.994 320.114 882.621 343.617 875.36 363.466L874.532 365.714C874.168 366.71 873.422 367.521 872.46 367.967C871.498 368.414 870.398 368.46 869.401 368.096Z" fill="#2F2E41"/>
<path d="M874.41 369.983C744.822 374.765 733.499 358.482 772.983 332.879L781.36 317.466L877.36 352.466L874.41 369.983Z" fill="#2F2E41"/>
<path d="M849 310.412C849.716 308.032 846.651 305.007 842.155 303.656C837.66 302.305 833.435 303.139 832.72 305.519C832.004 307.899 835.069 310.924 839.565 312.275C844.06 313.626 848.285 312.792 849 310.412Z" fill="#2F2E41"/>
<path d="M283.586 0C190.67 0 115.089 75.581 115.089 168.497C115.062 192.281 120.099 215.799 129.863 237.486C156.27 296.096 215.23 336.994 283.586 336.994C328.267 336.969 371.11 319.209 402.704 287.615C434.298 256.021 452.058 213.178 452.083 168.497C452.083 75.5811 376.488 0 283.586 0ZM422.994 236.233C410.27 262.383 390.454 284.431 365.805 299.863C341.156 315.295 312.667 323.491 283.586 323.514C217.899 323.514 161.621 282.441 139.096 224.627C132.116 206.738 128.545 187.7 128.569 168.497C128.569 83.0218 198.111 13.4798 283.586 13.4798C369.061 13.4798 438.603 83.0218 438.603 168.497C438.633 191.97 433.293 215.14 422.994 236.233Z" fill="#D99E63"/>
<path d="M283.586 337.494C251.669 337.468 220.411 328.415 193.42 311.381C166.429 294.347 144.807 270.027 131.049 241.228C130.5 240.079 130.262 238.807 130.358 237.538C130.454 236.269 130.881 235.047 131.597 233.994L131.687 233.862C132.402 232.827 133.376 231.997 134.513 231.458C135.649 230.918 136.908 230.686 138.162 230.787C139.416 230.887 140.622 231.316 141.658 232.029C142.695 232.743 143.525 233.716 144.066 234.852C169.63 288.408 224.394 323.014 283.586 323.014C310.635 322.945 337.197 315.805 360.636 302.303C384.074 288.8 403.576 269.404 417.204 246.038C417.838 244.941 418.751 244.031 419.85 243.401C420.95 242.77 422.196 242.443 423.463 242.45C424.717 242.447 425.949 242.778 427.032 243.41C428.115 244.041 429.011 244.95 429.625 246.043L429.704 246.181C430.328 247.283 430.652 248.53 430.646 249.797C430.639 251.063 430.301 252.307 429.666 253.402C414.756 278.933 393.432 300.124 367.808 314.874C342.185 329.624 313.152 337.422 283.586 337.494Z" fill="#FDF4EB"/>
<path d="M245.608 183.909C250.188 183.879 254.636 185.44 258.193 188.325C261.75 191.209 264.196 195.24 265.113 199.727C266.029 204.214 265.36 208.881 263.219 212.929C261.078 216.978 257.598 220.158 253.373 221.927C249.149 223.696 244.441 223.943 240.054 222.627C235.667 221.311 231.873 218.514 229.319 214.712C226.766 210.91 225.611 206.34 226.051 201.781C226.492 197.222 228.502 192.958 231.737 189.716C233.55 187.878 235.71 186.419 238.091 185.422C240.472 184.426 243.027 183.911 245.608 183.909ZM245.608 175.484C240.053 175.481 234.621 177.125 230 180.209C225.38 183.293 221.777 187.678 219.649 192.809C217.52 197.94 216.961 203.587 218.042 209.036C219.123 214.486 221.795 219.492 225.721 223.422C229.647 227.352 234.65 230.03 240.098 231.117C245.546 232.203 251.194 231.65 256.328 229.527C261.461 227.404 265.85 223.806 268.939 219.189C272.027 214.571 273.678 209.142 273.681 203.587C273.685 196.137 270.729 188.991 265.464 183.721C260.2 178.451 253.057 175.488 245.608 175.484ZM304.13 135.315C306.671 135.328 309.113 134.331 310.919 132.544C312.724 130.756 313.746 128.325 313.759 125.784C313.759 125.752 313.759 125.719 313.759 125.687C313.771 124.442 313.537 123.207 313.072 122.053C312.607 120.898 311.918 119.847 311.047 118.958C310.175 118.07 309.137 117.362 307.992 116.875C306.846 116.387 305.616 116.13 304.371 116.119C304.311 116.118 304.251 116.118 304.191 116.119C301.645 116.095 299.194 117.083 297.377 118.866C295.56 120.649 294.526 123.081 294.502 125.626C294.478 128.172 295.466 130.623 297.249 132.44C299.032 134.257 301.464 135.291 304.01 135.315C304.05 135.315 304.09 135.315 304.13 135.315ZM324.26 183.909C328.84 183.879 333.288 185.44 336.845 188.325C340.402 191.209 342.848 195.239 343.765 199.727C344.681 204.214 344.012 208.881 341.871 212.929C339.73 216.978 336.25 220.158 332.025 221.927C327.801 223.696 323.093 223.943 318.706 222.627C314.319 221.311 310.525 218.514 307.971 214.712C305.418 210.91 304.263 206.34 304.704 201.781C305.144 197.222 307.154 192.958 310.389 189.716C312.202 187.878 314.362 186.419 316.743 185.422C319.124 184.426 321.679 183.911 324.26 183.909ZM324.26 175.484C318.708 175.484 313.28 177.13 308.663 180.215C304.047 183.3 300.449 187.684 298.324 192.814C296.199 197.943 295.643 203.588 296.726 209.033C297.81 214.479 300.483 219.481 304.409 223.407C308.335 227.333 313.338 230.007 318.783 231.09C324.229 232.173 329.873 231.617 335.003 229.492C340.132 227.368 344.517 223.77 347.602 219.153C350.686 214.536 352.333 209.109 352.333 203.557C352.333 199.87 351.607 196.219 350.196 192.814C348.785 189.408 346.717 186.313 344.11 183.706C341.504 181.099 338.409 179.031 335.003 177.621C331.597 176.21 327.946 175.484 324.26 175.484Z" fill="#D99E63"/>
<path d="M318.633 154.632H304.19L295.314 136.549C294.598 135.281 293.597 134.196 292.391 133.38C291.185 132.565 289.805 132.04 288.362 131.847C286.918 131.655 285.45 131.8 284.072 132.271C282.694 132.742 281.444 133.527 280.42 134.563L258.847 155.354C257.081 157.157 256.078 159.571 256.048 162.094C256.048 167.33 259.84 169.195 261.615 170.248C275.305 178.131 280.119 179.004 280.119 182.946V202.774C280.119 204.051 280.627 205.275 281.529 206.178C282.432 207.081 283.657 207.588 284.934 207.588C286.21 207.588 287.435 207.081 288.338 206.178C289.241 205.275 289.748 204.051 289.748 202.774V175.694C289.748 171.723 280.601 168.473 275.215 164.261L289.928 148.765C295.555 157.34 298.143 164.261 301.362 164.261H318.633C319.91 164.263 321.135 163.757 322.039 162.856C322.944 161.955 323.453 160.731 323.455 159.454C323.457 158.177 322.952 156.952 322.05 156.048C321.149 155.143 319.925 154.634 318.648 154.632L318.633 154.632Z" fill="#D99E63"/>
<path d="M148.056 427.856C143.909 427.856 140.475 439.931 139.81 455.763H60.0263C59.3608 439.931 55.9273 427.856 51.78 427.856C47.1565 427.856 43.4082 442.849 43.4082 461.344C43.4082 479.838 47.1565 494.831 51.78 494.831C55.9273 494.831 59.3608 482.757 60.0263 466.925H139.81C140.475 482.757 143.909 494.831 148.056 494.831C152.68 494.831 156.428 479.838 156.428 461.344C156.428 442.849 152.68 427.856 148.056 427.856Z" fill="#D99E63"/>
<path d="M186.919 411.902C175.094 390.708 155.949 374.55 133.069 366.455C110.188 358.36 85.1421 358.883 62.6193 367.925C40.0965 376.967 21.6418 393.909 10.7108 415.578C-0.220292 437.247 -2.87814 462.157 3.23489 485.645C9.34792 509.132 23.8126 529.586 43.9206 543.177C64.0285 556.768 88.4009 562.563 112.474 559.478C136.547 556.392 158.67 544.638 174.701 526.416C190.732 508.194 199.571 484.753 199.563 460.483C199.558 443.476 195.205 426.753 186.919 411.902ZM99.7592 552.294C75.5697 552.17 52.4165 542.458 35.3777 525.287C18.3388 508.117 8.80521 484.89 8.86779 460.7C8.93038 436.51 18.584 413.333 35.7115 396.25C52.839 379.168 76.0421 369.576 100.232 369.578C124.422 369.579 147.624 379.175 164.749 396.259C181.874 413.343 191.525 436.522 191.584 460.712C191.644 484.902 182.107 508.128 165.066 525.296C148.025 542.464 124.87 552.173 100.681 552.294C100.374 552.295 100.066 552.295 99.7592 552.294Z" fill="#D99E63"/>
<path d="M99.8078 560.787C80.7912 560.796 62.1654 555.388 46.1109 545.196C45.3091 544.684 44.6903 543.932 44.3437 543.046L44.2934 542.916C43.9449 542.039 43.8876 541.073 44.13 540.16C44.3724 539.248 44.9016 538.438 45.6395 537.849C46.3529 537.249 47.2401 536.895 48.1703 536.838C49.1006 536.781 50.0244 537.025 50.8055 537.533C67.8699 548.395 88.0592 553.28 108.202 551.422C128.344 549.563 147.298 541.065 162.087 527.264C176.875 513.463 186.66 495.14 189.903 475.173C193.147 455.207 189.666 434.729 180.007 416.956C179.554 416.141 179.375 415.202 179.496 414.278C179.617 413.354 180.032 412.493 180.679 411.822C181.319 411.126 182.165 410.655 183.093 410.476C184.021 410.298 184.981 410.422 185.833 410.831L185.958 410.889C186.813 411.29 187.518 411.951 187.973 412.778C196.241 428.047 200.402 445.201 200.049 462.562C199.695 479.922 194.839 496.893 185.957 511.813C177.074 526.733 164.469 539.09 149.376 547.675C134.282 556.26 117.218 560.778 99.8546 560.787H99.8078Z" fill="#FDF4EB"/>
<path d="M467.366 360.697C454.258 360.691 441.276 363.268 429.164 368.28C417.051 373.292 406.044 380.641 396.772 389.907C387.5 399.173 380.144 410.175 375.125 422.285C370.105 434.394 367.52 447.374 367.518 460.483C367.516 473.591 370.096 486.572 375.111 498.684C380.126 510.795 387.478 521.8 396.746 531.069C406.015 540.339 417.019 547.692 429.13 552.708C441.241 557.725 454.221 560.306 467.33 560.305H467.366C468.013 560.305 468.647 560.305 469.294 560.278C495.592 559.772 520.627 548.904 538.955 530.039C557.283 511.173 567.422 485.834 567.168 459.533C566.914 433.231 556.287 408.093 537.598 389.585C518.909 371.077 493.669 360.695 467.366 360.697ZM487.707 550.034C475.11 552.894 462.05 553.065 449.382 550.533C436.714 548.002 424.723 542.826 414.192 535.344C403.662 527.861 394.828 518.241 388.27 507.111C381.711 495.982 377.575 483.593 376.131 470.756C374.687 457.919 375.969 444.921 379.892 432.613C383.814 420.304 390.291 408.962 398.896 399.328C407.502 389.694 418.044 381.983 429.834 376.702C441.623 371.42 454.394 368.685 467.312 368.677H467.366C489.947 368.675 511.736 376.995 528.57 392.045C545.404 407.095 556.101 427.821 558.618 450.261C561.135 472.701 555.295 495.282 542.214 513.687C529.132 532.093 509.727 545.033 487.707 550.034Z" fill="#D99E63"/>
<path d="M467.366 560.805C442.613 560.805 418.733 551.652 400.322 535.106C381.91 518.56 370.267 495.791 367.632 471.178C364.996 446.566 371.555 421.847 386.046 401.779C400.538 381.71 421.938 367.709 446.13 362.468C446.725 362.341 447.34 362.333 447.938 362.445L448.146 362.484C449.15 362.679 450.056 363.214 450.711 363.999C451.366 364.784 451.73 365.771 451.742 366.793C451.754 367.815 451.413 368.81 450.776 369.61C450.139 370.41 449.246 370.966 448.247 371.184C426.194 375.912 406.671 388.633 393.437 406.897C380.204 425.16 374.196 447.675 376.572 470.104C378.947 492.532 389.538 513.288 406.304 528.374C423.071 543.46 444.826 551.809 467.38 551.812C468.262 551.804 469.119 551.8 469.99 551.774C470.961 551.734 471.916 552.037 472.686 552.63C473.456 553.222 473.993 554.067 474.203 555.016C474.432 555.933 474.331 556.902 473.915 557.751C473.499 558.6 472.796 559.274 471.931 559.655C471.343 559.924 470.753 560.189 470.16 560.448C469.661 560.669 469.122 560.788 468.576 560.799C468.174 560.805 467.773 560.805 467.366 560.805Z" fill="#FDF4EB"/>
<path d="M516.603 456.258C513.944 456.124 511.314 456.865 509.115 458.365C506.916 459.866 505.269 462.046 504.424 464.57H494.595L487.419 442.992C487.153 442.184 486.639 441.48 485.949 440.981C485.26 440.482 484.43 440.213 483.579 440.213H483.503C482.639 440.226 481.803 440.519 481.12 441.047C480.437 441.576 479.943 442.311 479.713 443.144L468.469 482.383L455.255 403.02C455.101 402.101 454.637 401.264 453.939 400.647C453.24 400.031 452.352 399.673 451.421 399.635C450.491 399.596 449.575 399.879 448.828 400.436C448.082 400.992 447.549 401.789 447.321 402.692L433.929 464.57H418.921C417.848 464.57 416.82 464.996 416.062 465.754C415.304 466.513 414.878 467.541 414.878 468.613C414.878 469.685 415.304 470.714 416.062 471.472C416.82 472.23 417.848 472.656 418.921 472.656H437.113C438.013 472.657 438.888 472.357 439.598 471.802C440.308 471.248 440.812 470.472 441.029 469.598L450.479 423.562L463.441 501.359C463.589 502.265 464.044 503.093 464.729 503.705C465.414 504.316 466.288 504.675 467.206 504.719H467.433C468.312 504.718 469.166 504.432 469.868 503.903C470.57 503.375 471.081 502.633 471.324 501.788L483.882 457.925L487.849 469.876C488.119 470.682 488.635 471.383 489.324 471.882C490.012 472.38 490.839 472.651 491.689 472.656H504.601C505.373 474.7 506.683 476.498 508.392 477.859C510.101 479.221 512.147 480.095 514.312 480.39C516.477 480.685 518.682 480.39 520.693 479.535C522.705 478.681 524.448 477.299 525.738 475.535C527.029 473.772 527.819 471.692 528.026 469.517C528.232 467.341 527.847 465.15 526.911 463.176C525.976 461.201 524.524 459.516 522.709 458.298C520.895 457.08 518.785 456.375 516.603 456.258Z" fill="#D99E63"/>
<path d="M909.915 727.466H726.915C726.65 727.466 726.395 727.36 726.208 727.173C726.02 726.985 725.915 726.731 725.915 726.466C725.915 726.2 726.02 725.946 726.208 725.758C726.395 725.571 726.65 725.466 726.915 725.466H909.915C910.18 725.466 910.435 725.571 910.622 725.758C910.81 725.946 910.915 726.2 910.915 726.466C910.915 726.731 910.81 726.985 910.622 727.173C910.435 727.36 910.18 727.466 909.915 727.466Z" fill="#3F3D56"/>
</g>
<defs>
<clipPath id="clip0_16_8371">
<rect width="910.915" height="727.466" fill="white"/>
</clipPath>
</defs>
</svg>
